<?xml version="1.0" encoding="UTF-8" standalone="no"?>
<svg
   viewBox="0 0 793.7007874015749 1122.5196850393702"
   width="793.7007874015749"
   height="1122.5196850393702"
   version="1.1"
   id="svg167"
   sodipodi:docname="AccionLAND LOGO_17August2022.svg"
   xml:space="preserve"
   inkscape:version="1.2.1 (9c6d41e410, 2022-07-14)"
   inkscape:export-filename="AccionLAND LOGO_8Sept2022_300DPI.png"
   inkscape:export-xdpi="300"
   inkscape:export-ydpi="300"
   xmlns:inkscape="http://www.inkscape.org/namespaces/inkscape"
   xmlns:sodipodi="http://sodipodi.sourceforge.net/DTD/sodipodi-0.dtd"
   xmlns="http://www.w3.org/2000/svg"
   xmlns:svg="http://www.w3.org/2000/svg"><sodipodi:namedview
     id="namedview169"
     pagecolor="#ffffff"
     bordercolor="#000000"
     borderopacity="0.25"
     inkscape:showpageshadow="2"
     inkscape:pageopacity="0.0"
     inkscape:pagecheckerboard="0"
     inkscape:deskcolor="#d1d1d1"
     showgrid="false"
     inkscape:zoom="0.6993196"
     inkscape:cx="160.87065"
     inkscape:cy="561.25983"
     inkscape:window-width="1920"
     inkscape:window-height="1001"
     inkscape:window-x="-9"
     inkscape:window-y="-9"
     inkscape:window-maximized="1"
     inkscape:current-layer="g3758" /><desc
     id="desc132">whitepart.dxf - scale = 1.946301, origin = (1982.898309, 1087.275793), method = auto</desc><defs
     id="defs147"><marker
       id="DistanceX"
       orient="auto"
       refX="0.0"
       refY="0.0"
       style="overflow:visible"><path
         d="M 3,-3 L -3,3 M 0,-5 L  0,5"
         style="stroke:#000000; stroke-width:0.5"
         id="path134" /></marker><pattern
       id="Hatch"
       patternUnits="userSpaceOnUse"
       width="8"
       height="8"
       x="0"
       y="0"><path
         d="M8 4 l-4,4"
         stroke="#000000"
         stroke-width="0.25"
         linecap="square"
         id="path137" /><path
         d="M6 2 l-4,4"
         stroke="#000000"
         stroke-width="0.25"
         linecap="square"
         id="path139" /><path
         d="M4 0 l-4,4"
         stroke="#000000"
         stroke-width="0.25"
         linecap="square"
         id="path141" /></pattern><symbol
       id="*Model_Space" /><symbol
       id="*Paper_Space" /><symbol
       id="*Paper_Space0" /><marker
       id="DistanceX-3"
       orient="auto"
       refX="0.0"
       refY="0.0"
       style="overflow:visible"><path
         d="M 3,-3 L -3,3 M 0,-5 L  0,5"
         style="stroke:#000000; stroke-width:0.5"
         id="path2409" /></marker><pattern
       id="Hatch-2"
       patternUnits="userSpaceOnUse"
       width="8"
       height="8"
       x="0"
       y="0"><path
         d="M8 4 l-4,4"
         stroke="#000000"
         stroke-width="0.25"
         linecap="square"
         id="path2412" /><path
         d="M6 2 l-4,4"
         stroke="#000000"
         stroke-width="0.25"
         linecap="square"
         id="path2414" /><path
         d="M4 0 l-4,4"
         stroke="#000000"
         stroke-width="0.25"
         linecap="square"
         id="path2416" /></pattern><symbol
       id="*Model_Space-0" /><symbol
       id="*Paper_Space-6" /><symbol
       id="*Paper_Space0-1" /></defs><g
     inkscape:groupmode="layer"
     inkscape:label="0"
     id="g159" /><g
     inkscape:groupmode="layer"
     inkscape:label="Defpoints"
     id="g161" /><g
     inkscape:groupmode="layer"
     inkscape:label="White100"
     id="g165"><g
       id="g2880"
       transform="translate(25.739304,-31.45915)"><g
         id="g3758"><text
           x="74.503899"
           y="880.86487"
           style="font-size:83.8589px;font-family:Arial;text-anchor:start;fill:#000000;stroke-width:2.93924"
           id="text157"
           transform="scale(1.045781,0.95622313)"><tspan
             sodipodi:role="line"
             id="tspan155"
             x="74.503899"
             y="880.86487"
             style="font-style:normal;font-variant:normal;font-weight:normal;font-stretch:normal;font-size:83.8589px;font-family:'Bell MT';-inkscape-font-specification:'Bell MT';stroke-width:2.93924">ACCIONLAND</tspan></text><path
           d="M 80.653444,748.68614 H 226.25395 L 274.53853,614.32452 388.6209,615.8848 266.75333,571.88506 A 191.58379,199.89459 0 0 0 168.24105,561.58727 L 80.653444,748.68614"
           style="fill:#414143;fill-opacity:1;stroke:#414143;stroke-width:1.45961;stroke-opacity:1"
           id="path149" /><path
           d="M 506.73357,748.68614 H 651.18842 L 582.04761,596.8636 a 160.26972,167.22211 0 0 1 -116.05777,34.74138 l 40.74373,117.08116"
           style="display:inline;fill:#414143;fill-opacity:1;stroke:#414143;stroke-width:1.45961;stroke-opacity:1"
           id="path151"
           inkscape:label="path151" /><path
           d="M 564.67274,563.42429 403.89873,221.34234 H 327.72992 L 181.98365,531.21925 a 138.78537,144.8058 0 0 1 83.60083,-13.57284 l -0.21717,-111.04571 16.73793,-0.13439 v 65.76062 H 292.495 v -33.91498 h 24.06427 v 15.72299 h 4.48854 v -8.31627 h 26.34615 v 13.51214 h 5.23677 v 20.01113 h 6.98246 v -43.66076 h 26.93189 v -9.87557 h 34.45271 v -39.47947 h 12.10972 v 47.86857 h 12.72335 v 18.19199 h 16.11655 v 75.94482 h 8.11072 v -40.33141 h 22.9451 v 85.50737 a 126.40997,131.89356 0 0 0 71.66951,-9.98328"
           style="mix-blend-mode:normal;fill:#418c61;fill-opacity:1;stroke:#3f7f5f;stroke-width:1.45961"
           id="path153" /><path
           d="m 182.77482,530.80932 -0.79117,0.40993 a 138.78537,144.8058 0 0 1 83.60083,-13.57284 l -0.21717,-111.04571 16.73793,-0.13439 v 65.76062 H 292.495 v -33.91498 h 24.06427 v 15.72299 h 4.48854 v -8.31627 h 26.34615 v 13.51214 h 5.23677 v 20.01113 h 6.98246 v -43.66076 h 26.93189 v -9.87557 h 34.45271 v -39.47947 h 12.10972 v 47.86857 h 12.72335 v 18.19199 h 16.11655 v 75.94482 h 8.11072 v -40.33141 h 22.9451 v 85.50737 a 126.40997,131.89356 0 0 0 71.66951,-9.98328 l 17.37487,33.43933 A 160.26972,167.22211 0 0 1 465.98984,631.6049 296.02337,308.86471 0 0 1 388.6209,615.88474 L 266.75333,571.885 a 191.58379,199.89459 0 0 0 -98.51228,-10.29779 l 13.7426,-30.36802 -13.7426,30.36802"
           style="fill:#ffffff;fill-opacity:1;stroke:#ffffff;stroke-width:1.45961;stroke-opacity:1"
           id="path163" /><text
           x="458.60333"
           y="799.22064"
           style="font-size:27.7939px;font-family:Arial;text-anchor:start;fill:#000000;stroke-width:0.571385"
           id="text2444"
           transform="scale(1.0229079,0.97760512)"><tspan
             sodipodi:role="line"
             id="tspan2442"
             x="458.60333"
             y="799.22064"
             style="stroke-width:0.571385">&quot;Bridging_Rye&quot;</tspan></text></g></g></g></svg>
